<svg xmlns="http://www.w3.org/2000/svg" xmlns:svg="http://www.w3.org/2000/svg" id="svg2" width="542.262" height="421.32" version="1.1" viewBox="0 0 542.262 421.32"><defs id="defs4"><marker id="Arrow1Lstart" orient="auto" refX="0" refY="0" style="overflow:visible"><path id="path5641" d="M 0,0 5,-5 -12.5,0 5,5 0,0 Z" transform="matrix(0.8,0,0,0.8,10,0)" style="fill:#333;fill-opacity:1;fill-rule:evenodd;stroke:#333;stroke-width:1pt;stroke-opacity:1"/></marker></defs><metadata id="metadata7"/><g id="layer1" transform="translate(-3.8179636,-0.63783305)"><rect style="fill:#333;fill-opacity:1;fill-rule:evenodd;stroke:#7b7b7b;stroke-width:4.35432243;stroke-linejoin:round;stroke-miterlimit:4;stroke-dasharray:none;stroke-dashoffset:0;stroke-opacity:1" id="rect4140" width="533.908" height="386.08" x="7.995" y="31.702" ry="4.087"/><path style="opacity:1;fill:#5f5f5f;fill-opacity:1;fill-rule:evenodd;stroke:#7b7b7b;stroke-width:1.7417289;stroke-linecap:butt;stroke-linejoin:round;stroke-miterlimit:4;stroke-dasharray:none;stroke-opacity:1" id="path4142" d="m 11.784194,30.607686 3.909441,2.203707 229.832545,8.201845 63.75435,0.022 224.85154,-8.243825 3.62932,-2.259502 -212.97838,-26.8588772 -4.93473,-0.1643363 -87.95964,0.023608 -6.12102,-0.010603 z"/><path style="fill:none;fill-rule:evenodd;stroke:#7b7b7b;stroke-width:1.7928344;stroke-linecap:butt;stroke-linejoin:round;stroke-miterlimit:4;stroke-dasharray:none;stroke-opacity:1" id="path5633" d="m 232.6312,3.558453 13.45244,37.031612 62.14152,0 14.58639,-36.9838295 z"/><path style="fill:#333;fill-opacity:1;fill-rule:evenodd;stroke:#333;stroke-width:1.7417289;stroke-linecap:butt;stroke-linejoin:round;stroke-miterlimit:4;stroke-dasharray:none;stroke-dashoffset:0;stroke-opacity:1" id="path5635" d="m 36.01786,30.814882 -0.02015,-0.230486 29.298829,-3.582028 2.023737,4.889709 z"/><path style="fill:#333;fill-opacity:1;fill-rule:evenodd;stroke:#333;stroke-width:1.7417289;stroke-linecap:butt;stroke-linejoin:round;stroke-miterlimit:4;stroke-dasharray:none;stroke-opacity:1" id="path5944" d="M 73.225944,26.125373 218.28826,7.3308265 194.33036,35.319352 75.683356,31.808264 Z"/><path style="fill:#333;fill-opacity:1;fill-rule:evenodd;stroke:#333;stroke-width:1.7417289;stroke-linecap:round;stroke-linejoin:round;stroke-miterlimit:4;stroke-dasharray:none;stroke-opacity:1" id="path5946" d="m 225.75436,7.0953269 4.15812,-0.015115 11.03378,30.7404921 -38.27783,-1.886105 z"/><path style="fill:#333;fill-opacity:1;fill-rule:evenodd;stroke:#333;stroke-width:1.7417289;stroke-linecap:butt;stroke-linejoin:round;stroke-miterlimit:4;stroke-dasharray:none;stroke-dashoffset:0;stroke-opacity:1" id="path5635-9" d="m 519.16386,31.16652 0.0202,-0.230486 -29.29884,-3.582028 -2.02373,4.889709 z"/><path style="fill:#333;fill-opacity:1;fill-rule:evenodd;stroke:#333;stroke-width:1.7417289;stroke-linecap:butt;stroke-linejoin:round;stroke-miterlimit:4;stroke-dasharray:none;stroke-opacity:1" id="path5944-9" d="M 481.95576,26.477011 336.77798,8.1689558 360.85134,35.67099 479.49836,32.159902 Z"/><path style="fill:#333;fill-opacity:1;fill-rule:evenodd;stroke:#333;stroke-width:1.7417289;stroke-linecap:round;stroke-linejoin:round;stroke-miterlimit:4;stroke-dasharray:none;stroke-opacity:1" id="path5946-3" d="m 329.42735,7.4469651 -4.15812,-0.015119 -11.03379,30.7404919 38.27784,-1.886105 z"/></g></svg>